<svg t="1734675826279" class="icon" viewBox="0 0 1024 1024" version="1.1" xmlns="http://www.w3.org/2000/svg" p-id="4288" width="128" height="128"><path d="M651.015758 467.93697c-57.095758 35.995152-95.573333 62.060606-105.503031 70.749091-35.995152 28.547879-94.332121 29.789091-139.015757-19.859394 0 0-19.859394-22.341818-17.37697-55.854546 2.482424-33.512727 23.58303-67.025455 64.54303-100.538182 27.306667-22.341818 69.507879-44.683636 104.261818-76.955151 16.135758 8.688485 32.271515 18.618182 45.924849 32.271515 38.477576 38.477576 57.095758 94.332121 47.166061 150.186667zM899.258182 239.553939c2.482424 4.964848 3.723636 13.653333 2.482424 22.341819-3.723636 14.894545-14.894545 28.547879-34.753939 38.477575-2.482424 2.482424-8.688485 8.688485-16.135758 17.37697-24.824242 33.512727-50.889697 59.578182-76.955151 79.437576-7.447273 4.964848-14.894545 9.929697-21.100606 14.894545-6.206061-62.060606-33.512727-120.397576-78.196364-165.081212-17.37697-17.37697-37.236364-32.271515-58.33697-44.683636 6.206061-17.37697 29.789091-79.437576 90.608485-114.191515 17.37697-9.929697 29.789091-21.100606 39.718788-34.75394 0 0 1.241212-2.482424 1.241212-3.723636 14.894545-26.065455 49.648485-37.236364 76.955152-37.236364 17.37697 0 29.789091 4.964848 38.477575 16.135758 8.688485 8.688485 11.170909 22.341818 9.929697 38.477576 9.929697 4.964848 23.58303 14.894545 27.306667 29.78909 2.482424 11.170909 0 23.58303-8.688485 35.995152 14.894545 16.135758 21.100606 35.995152 9.929697 53.372121 9.929697 13.653333 11.170909 32.271515-2.482424 53.372121zM375.466667 141.498182c-40.96 34.753939-80.678788 3.723636-107.985455 32.271515l-1.241212 1.241212c-11.170909 6.206061-11.170909 34.753939-13.653333 52.130909-4.964848 31.030303-21.100606 54.613333-50.889697 69.507879-8.688485 4.964848-17.37697 7.447273-27.306667 7.447273-28.547879 0-59.578182-23.58303-64.54303-59.578182-7.447273-47.166061 26.065455-58.33697 47.16606-104.261818l9.929697-24.824243c0-1.241212 1.241212-2.482424 1.241212-3.723636C176.872727 83.161212 189.284848 59.578182 206.661818 40.96c49.648485-54.613333 117.915152-40.96 171.287273 7.447273 27.306667 24.824242 31.030303 64.54303-2.482424 93.090909zM890.569697 677.701818c-27.306667 21.100606-58.33697 12.412121-73.231515 12.412121-17.37697 0-26.065455 9.929697-28.547879 11.170909-8.688485 0-12.412121 35.995152-13.653333 45.924849-6.206061 27.306667-22.341818 48.407273-50.889697 60.819394-55.854545 27.306667-114.191515-54.613333-62.060606-106.744243 26.065455-26.065455 33.512727-52.130909 38.477575-59.578181 0-1.241212 1.241212-1.241212 1.241213-2.482425 26.065455-65.784242 75.713939-107.985455 141.498181-81.92 19.859394 7.447273 37.236364 19.859394 53.372122 35.995152 26.065455 23.58303 26.065455 59.578182-6.206061 84.402424z" fill="#1296db" p-id="4289"></path><path d="M655.980606 265.619394c-95.573333-95.573333-250.724848-95.573333-346.298182 0-95.573333 95.573333-95.573333 250.724848 0 346.298182 95.573333 95.573333 250.724848 95.573333 346.298182 0 95.573333-95.573333 95.573333-250.724848 0-346.298182z m-34.753939 311.544242c-76.955152 76.955152-201.076364 76.955152-276.790303 0-75.713939-75.713939-76.955152-199.835152 0-276.790303 67.025455-67.025455 166.322424-74.472727 239.553939-28.547878 0 0 1.241212 1.241212 2.482424 1.241212 12.412121 7.447273 24.824242 17.37697 34.75394 27.306666 76.955152 75.713939 76.955152 201.076364 0 276.790303zM319.612121 678.94303l-12.412121-12.412121 13.653333-13.653333c-9.929697-7.447273-18.618182-14.894545-27.306666-24.824243s-17.37697-18.618182-24.824243-28.547878l-13.653333 13.653333-12.412121-12.412121c-4.964848-4.964848-12.412121-4.964848-17.37697 0-4.964848 4.964848-4.964848 12.412121 0 17.376969l3.723636 3.723637-105.50303 105.50303c-19.859394 18.618182-19.859394 49.648485 0 69.507879 18.618182 18.618182 49.648485 19.859394 69.507879 0l105.50303-105.50303 3.723637 3.723636c4.964848 4.964848 12.412121 4.964848 17.376969 0 4.964848-2.482424 4.964848-11.170909 0-16.135758z" fill="#1296db" p-id="4290"></path></svg>